# Blender v3.1.2 OBJ File: 'cube.blend'
# www.blender.org
mtllib mathwave.mtl
v 0.000000 1.000000 0.000000
v 0.000000 1.841471 -1.000000
v 0.000000 1.909297 -2.000000
v 0.000000 1.141120 -3.000000
v 0.000000 0.243198 -4.000000
v 0.000000 0.041076 -5.000000
v 0.000000 0.720585 -6.000000
v 0.000000 1.656987 -7.000000
v 0.000000 1.989358 -8.000000
v 0.000000 1.412118 -9.000000
v 1.000000 0.540302 0.000000
v 1.000000 1.381773 -1.000000
v 1.000000 1.449600 -2.000000
v 1.000000 0.681422 -3.000000
v 1.000000 -0.216500 -4.000000
v 1.000000 -0.418622 -5.000000
v 1.000000 0.260887 -6.000000
v 1.000000 1.197289 -7.000000
v 1.000000 1.529661 -8.000000
v 1.000000 0.952421 -9.000000
v 2.000000 -0.416147 0.000000
v 2.000000 0.425324 -1.000000
v 2.000000 0.493151 -2.000000
v 2.000000 -0.275027 -3.000000
v 2.000000 -1.172949 -4.000000
v 2.000000 -1.375071 -5.000000
v 2.000000 -0.695562 -6.000000
v 2.000000 0.240840 -7.000000
v 2.000000 0.573211 -8.000000
v 2.000000 -0.004028 -9.000000
v 3.000000 -0.989992 0.000000
v 3.000000 -0.148522 -1.000000
v 3.000000 -0.080695 -2.000000
v 3.000000 -0.848872 -3.000000
v 3.000000 -1.746795 -4.000000
v 3.000000 -1.948917 -5.000000
v 3.000000 -1.269408 -6.000000
v 3.000000 -0.333006 -7.000000
v 3.000000 -0.000634 -8.000000
v 3.000000 -0.577874 -9.000000
v 4.000000 -0.653644 0.000000
v 4.000000 0.187827 -1.000000
v 4.000000 0.255654 -2.000000
v 4.000000 -0.512524 -3.000000
v 4.000000 -1.410446 -4.000000
v 4.000000 -1.612568 -5.000000
v 4.000000 -0.933059 -6.000000
v 4.000000 0.003343 -7.000000
v 4.000000 0.335715 -8.000000
v 4.000000 -0.241525 -9.000000
v 5.000000 0.283662 0.000000
v 5.000000 1.125133 -1.000000
v 5.000000 1.192960 -2.000000
v 5.000000 0.424782 -3.000000
v 5.000000 -0.473140 -4.000000
v 5.000000 -0.675262 -5.000000
v 5.000000 0.004247 -6.000000
v 5.000000 0.940649 -7.000000
v 5.000000 1.273020 -8.000000
v 5.000000 0.695781 -9.000000
v 6.000000 0.960170 0.000000
v 6.000000 1.801641 -1.000000
v 6.000000 1.869468 -2.000000
v 6.000000 1.101290 -3.000000
v 6.000000 0.203368 -4.000000
v 6.000000 0.001246 -5.000000
v 6.000000 0.680755 -6.000000
v 6.000000 1.617157 -7.000000
v 6.000000 1.949529 -8.000000
v 6.000000 1.372289 -9.000000
v 7.000000 0.753902 0.000000
v 7.000000 1.595373 -1.000000
v 7.000000 1.663200 -2.000000
v 7.000000 0.895022 -3.000000
v 7.000000 -0.002900 -4.000000
v 7.000000 -0.205022 -5.000000
v 7.000000 0.474487 -6.000000
v 7.000000 1.410889 -7.000000
v 7.000000 1.743261 -8.000000
v 7.000000 1.166021 -9.000000
v 8.000000 -0.145500 0.000000
v 8.000000 0.695971 -1.000000
v 8.000000 0.763797 -2.000000
v 8.000000 -0.004380 -3.000000
v 8.000000 -0.902303 -4.000000
v 8.000000 -1.104424 -5.000000
v 8.000000 -0.424916 -6.000000
v 8.000000 0.511487 -7.000000
v 8.000000 0.843858 -8.000000
v 8.000000 0.266618 -9.000000
v 9.000000 -0.911130 0.000000
v 9.000000 -0.069659 -1.000000
v 9.000000 -0.001833 -2.000000
v 9.000000 -0.770010 -3.000000
v 9.000000 -1.667933 -4.000000
v 9.000000 -1.870054 -5.000000
v 9.000000 -1.190546 -6.000000
v 9.000000 -0.254144 -7.000000
v 9.000000 0.078228 -8.000000
v 9.000000 -0.499012 -9.000000
vn -0.3318 -0.7218 -0.6074
vn -0.4169 -0.9069 -0.0615
vn -0.3425 -0.7451 0.5723
vn -0.3236 -0.7040 0.6322
vn -0.4108 -0.8937 0.1806
vn -0.3554 -0.7731 -0.5253
vn -0.3181 -0.6920 -0.6480
vn -0.3998 -0.8698 -0.2891
vn -0.3699 -0.8046 0.4645
vn -0.5906 -0.6175 -0.5196
vn -0.6904 -0.7218 -0.0490
vn -0.6043 -0.6318 0.4854
vn -0.5798 -0.6062 0.5443
vn -0.6839 -0.7151 0.1445
vn -0.6204 -0.6487 -0.4408
vn -0.5724 -0.5985 -0.5604
vn -0.6721 -0.7027 -0.2336
vn -0.6379 -0.6670 0.3850
vn -0.4020 -0.7006 -0.5895
vn -0.4969 -0.8658 -0.0587
vn -0.4142 -0.7218 0.5545
vn -0.3927 -0.6843 0.6144
vn -0.4902 -0.8543 0.1727
vn -0.4288 -0.7472 -0.5077
vn -0.3863 -0.6733 -0.6304
vn -0.4782 -0.8334 -0.2770
vn -0.4451 -0.7756 0.4477
vn 0.2492 -0.7410 -0.6235
vn 0.3181 -0.9459 -0.0642
vn 0.2577 -0.7662 0.5886
vn 0.2428 -0.7218 0.6481
vn 0.3131 -0.9309 0.1882
vn 0.2680 -0.7969 -0.5415
vn 0.2384 -0.7089 -0.6638
vn 0.3041 -0.9040 -0.3005
vn 0.2797 -0.8315 0.4800
vn 0.5828 -0.6218 -0.5232
vn 0.6830 -0.7287 -0.0494
vn 0.5966 -0.6365 0.4889
vn 0.5720 -0.6103 0.5480
vn 0.6765 -0.7218 0.1459
vn 0.6127 -0.6537 -0.4442
vn 0.5647 -0.6024 -0.5641
vn 0.6646 -0.7091 -0.2357
vn 0.6303 -0.6724 0.3881
vn 0.4597 -0.6795 -0.5718
vn 0.5594 -0.8270 -0.0561
vn 0.4728 -0.6988 0.5368
vn 0.4496 -0.6646 0.5968
vn 0.5526 -0.8169 0.1651
vn 0.4883 -0.7218 -0.4905
vn 0.4428 -0.6545 -0.6129
vn 0.5402 -0.7986 -0.2654
vn 0.5055 -0.7473 0.4313
vn -0.1559 -0.7558 -0.6360
vn -0.2016 -0.9772 -0.0663
vn -0.1614 -0.7826 0.6012
vn -0.1517 -0.7355 0.6604
vn -0.1982 -0.9607 0.1942
vn -0.1682 -0.8153 -0.5540
vn -0.1489 -0.7218 -0.6759
vn -0.1921 -0.9313 -0.3095
vn -0.1759 -0.8526 0.4921
vn -0.5669 -0.6303 -0.5304
vn -0.6679 -0.7426 -0.0504
vn -0.5807 -0.6456 0.4960
vn -0.5562 -0.6184 0.5552
vn -0.6613 -0.7353 0.1486
vn -0.5969 -0.6636 -0.4509
vn -0.5488 -0.6102 -0.5714
vn -0.6492 -0.7218 -0.2399
vn -0.6145 -0.6832 0.3944
vn -0.5055 -0.6602 -0.5555
vn -0.6070 -0.7929 -0.0538
vn -0.5190 -0.6779 0.5207
vn -0.4950 -0.6465 0.5805
vn -0.6002 -0.7840 0.1585
vn -0.5350 -0.6988 -0.4748
vn -0.4878 -0.6372 -0.5967
vn -0.5878 -0.7677 -0.2552
vn -0.5526 -0.7218 0.4167
usemtl None
s off
f 1//1 2//1 12//1 11//1
f 2//2 3//2 13//2 12//2
f 3//3 4//3 14//3 13//3
f 4//4 5//4 15//4 14//4
f 5//5 6//5 16//5 15//5
f 6//6 7//6 17//6 16//6
f 7//7 8//7 18//7 17//7
f 8//8 9//8 19//8 18//8
f 9//9 10//9 20//9 19//9
f 11//10 12//10 22//10 21//10
f 12//11 13//11 23//11 22//11
f 13//12 14//12 24//12 23//12
f 14//13 15//13 25//13 24//13
f 15//14 16//14 26//14 25//14
f 16//15 17//15 27//15 26//15
f 17//16 18//16 28//16 27//16
f 18//17 19//17 29//17 28//17
f 19//18 20//18 30//18 29//18
f 21//19 22//19 32//19 31//19
f 22//20 23//20 33//20 32//20
f 23//21 24//21 34//21 33//21
f 24//22 25//22 35//22 34//22
f 25//23 26//23 36//23 35//23
f 26//24 27//24 37//24 36//24
f 27//25 28//25 38//25 37//25
f 28//26 29//26 39//26 38//26
f 29//27 30//27 40//27 39//27
f 31//28 32//28 42//28 41//28
f 32//29 33//29 43//29 42//29
f 33//30 34//30 44//30 43//30
f 34//31 35//31 45//31 44//31
f 35//32 36//32 46//32 45//32
f 36//33 37//33 47//33 46//33
f 37//34 38//34 48//34 47//34
f 38//35 39//35 49//35 48//35
f 39//36 40//36 50//36 49//36
f 41//37 42//37 52//37 51//37
f 42//38 43//38 53//38 52//38
f 43//39 44//39 54//39 53//39
f 44//40 45//40 55//40 54//40
f 45//41 46//41 56//41 55//41
f 46//42 47//42 57//42 56//42
f 47//43 48//43 58//43 57//43
f 48//44 49//44 59//44 58//44
f 49//45 50//45 60//45 59//45
f 51//46 52//46 62//46 61//46
f 52//47 53//47 63//47 62//47
f 53//48 54//48 64//48 63//48
f 54//49 55//49 65//49 64//49
f 55//50 56//50 66//50 65//50
f 56//51 57//51 67//51 66//51
f 57//52 58//52 68//52 67//52
f 58//53 59//53 69//53 68//53
f 59//54 60//54 70//54 69//54
f 61//55 62//55 72//55 71//55
f 62//56 63//56 73//56 72//56
f 63//57 64//57 74//57 73//57
f 64//58 65//58 75//58 74//58
f 65//59 66//59 76//59 75//59
f 66//60 67//60 77//60 76//60
f 67//61 68//61 78//61 77//61
f 68//62 69//62 79//62 78//62
f 69//63 70//63 80//63 79//63
f 71//64 72//64 82//64 81//64
f 72//65 73//65 83//65 82//65
f 73//66 74//66 84//66 83//66
f 74//67 75//67 85//67 84//67
f 75//68 76//68 86//68 85//68
f 76//69 77//69 87//69 86//69
f 77//70 78//70 88//70 87//70
f 78//71 79//71 89//71 88//71
f 79//72 80//72 90//72 89//72
f 81//73 82//73 92//73 91//73
f 82//74 83//74 93//74 92//74
f 83//75 84//75 94//75 93//75
f 84//76 85//76 95//76 94//76
f 85//77 86//77 96//77 95//77
f 86//78 87//78 97//78 96//78
f 87//79 88//79 98//79 97//79
f 88//80 89//80 99//80 98//80
f 89//81 90//81 100//81 99//81
